<svg xmlns="http://www.w3.org/2000/svg" xmlns:xlink="http://www.w3.org/1999/xlink" width="500" zoomAndPan="magnify" viewBox="0 0 375 374.999991" height="500" preserveAspectRatio="xMidYMid meet" version="1.0"><defs><clipPath id="96a08179dc"><path d="M 200 220.011719 L 349.96875 220.011719 L 349.96875 332 L 200 332 Z M 200 220.011719 " clip-rule="nonzero"/></clipPath><clipPath id="8cefff8bd1"><path d="M 236 220.011719 L 302 220.011719 L 302 257 L 236 257 Z M 236 220.011719 " clip-rule="nonzero"/></clipPath><clipPath id="646f364aca"><path d="M 243 220.011719 L 299 220.011719 L 299 261 L 243 261 Z M 243 220.011719 " clip-rule="nonzero"/></clipPath><clipPath id="53e50f6897"><path d="M 236 220.011719 L 284 220.011719 L 284 260 L 236 260 Z M 236 220.011719 " clip-rule="nonzero"/></clipPath></defs><path fill="#231f20" d="M 345.761719 226.460938 C 346.160156 226.480469 346.539062 226.574219 346.898438 226.746094 C 347.261719 226.917969 347.574219 227.152344 347.84375 227.449219 C 348.109375 227.746094 348.308594 228.082031 348.445312 228.457031 C 348.578125 228.835938 348.632812 229.222656 348.613281 229.621094 L 345.332031 291.53125 L 343.410156 329.964844 L 254.839844 319.070312 L 201.886719 313.136719 C 202.453125 298.921875 204.421875 251.375 204.421875 250.957031 C 204.421875 250.539062 205.03125 236.78125 205.511719 224.675781 C 205.53125 224.210938 205.636719 223.769531 205.828125 223.347656 C 206.023438 222.925781 206.289062 222.554688 206.625 222.238281 C 206.964844 221.921875 207.347656 221.679688 207.78125 221.511719 C 208.214844 221.347656 208.664062 221.269531 209.128906 221.28125 L 271.058594 222.675781 Z M 345.761719 226.460938 " fill-opacity="1" fill-rule="nonzero"/><g clip-path="url(#96a08179dc)"><path stroke-linecap="round" transform="matrix(0.491803, 0, 0, 0.491803, 68.19161, 148.700395)" fill="none" stroke-linejoin="round" d="M 564.392598 158.113116 C 565.202755 158.152829 565.973197 158.343454 566.703927 158.692933 C 567.442599 159.042412 568.078015 159.518975 568.626062 160.122621 C 569.166166 160.726267 569.571245 161.40934 569.849239 162.17184 C 570.119291 162.942283 570.230489 163.728611 570.190776 164.538767 L 563.5189 290.422761 L 559.611088 368.571075 L 379.518105 346.41886 L 271.846742 334.353885 C 272.998435 305.450367 277.00156 208.771713 277.00156 207.921843 C 277.00156 207.071974 278.240623 179.097753 279.217576 154.483298 C 279.257289 153.538115 279.471742 152.640589 279.860935 151.782777 C 280.258071 150.924964 280.798175 150.170407 281.481248 149.527047 C 282.172263 148.883688 282.950649 148.39124 283.83229 148.049703 C 284.71393 147.71611 285.627342 147.557255 286.572524 147.581083 L 412.496232 150.416631 Z M 564.392598 158.113116 " stroke="#231f20" stroke-width="5" stroke-opacity="1" stroke-miterlimit="4"/></g><path stroke-linecap="round" transform="matrix(0.491803, 0, 0, 0.491803, 68.19161, 148.700395)" fill-opacity="1" fill="#1c1030" fill-rule="nonzero" stroke-linejoin="round" d="M 288.518488 157.4221 L 281.520961 324.417556 L 508.523583 350.421985 L 545.520722 353.416386 L 554.519811 170.416372 Z M 288.518488 157.4221 " stroke="#ffffff" stroke-width="3" stroke-opacity="1" stroke-miterlimit="4"/><path stroke-linecap="round" transform="matrix(0.491803, 0, 0, 0.491803, 68.19161, 148.700395)" fill-opacity="1" fill="#231f20" fill-rule="nonzero" stroke-linejoin="round" d="M 492.630223 402.669125 C 492.558738 405.862094 492.519025 409.158318 492.519025 412.422771 C 492.566681 415.274204 492.145718 418.062094 491.256134 420.778501 C 488.372931 429.173944 481.518373 430.42095 481.518373 430.42095 L 433.520583 447.418347 L 356.523962 434.416132 C 356.523962 434.416132 400.518627 418.419516 407.516154 413.423552 C 408.953784 412.192433 409.986336 410.691261 410.621753 408.912094 C 412.472404 404.583317 413.616154 398.189437 414.362769 392.383316 L 490.517462 402.383187 Z M 492.630223 402.669125 " stroke="#231f20" stroke-width="5" stroke-opacity="1" stroke-miterlimit="4"/><path stroke-linecap="round" transform="matrix(0.491803, 0, 0, 0.491803, 68.19161, 148.700395)" fill-opacity="1" fill="#ffffff" fill-rule="nonzero" stroke-linejoin="round" d="M 559.611088 368.571075 L 557.998718 401.001156 C 557.966947 401.604802 557.879577 402.200505 557.728666 402.788265 C 557.577754 403.368083 557.363301 403.932015 557.093249 404.480062 C 556.823197 405.020166 556.505488 405.5285 556.132181 406.005062 C 555.758874 406.481625 555.33791 406.910531 554.877233 407.299724 C 554.416556 407.696859 553.916165 408.030453 553.384004 408.324333 C 552.851842 408.610271 552.295853 408.840609 551.716035 409.015349 C 551.136217 409.182146 550.548457 409.301286 549.944811 409.348943 C 549.341165 409.404542 548.737519 409.388656 548.141816 409.317172 L 492.638166 402.692953 L 490.533348 402.438786 L 414.370711 392.438915 L 279.233461 374.56782 C 278.034112 374.408966 276.91419 374.043601 275.85781 373.471726 C 274.80143 372.891909 273.880075 372.145294 273.10169 371.231882 C 272.323304 370.310528 271.735544 369.285919 271.338408 368.150111 C 270.941273 367.014304 270.758591 365.846726 270.798304 364.639434 L 271.521091 342.423677 C 271.521091 342.423677 271.640231 339.421333 271.846742 334.353885 L 379.518105 346.41886 Z M 559.611088 368.571075 " stroke="#231f20" stroke-width="5" stroke-opacity="1" stroke-miterlimit="4"/><path fill="#ffffff" d="M 243.285156 311.941406 L 206.890625 307.511719 L 210.824219 227.347656 L 246.726562 229.316406 Z M 243.285156 311.941406 " fill-opacity="0.25" fill-rule="nonzero"/><path fill="#120225" d="M 339.675781 236.695312 L 210.824219 230.300781 L 210.824219 226.859375 L 340.167969 233.25 Z M 339.675781 236.695312 " fill-opacity="1" fill-rule="nonzero"/><path fill="#24143b" d="M 212.796875 231.566406 L 215.464844 231.695312 L 215.304688 235 L 212.636719 234.867188 Z M 212.796875 231.566406 " fill-opacity="1" fill-rule="nonzero"/><path fill="#24143b" d="M 211.902344 249.816406 L 214.570312 249.945312 L 214.410156 253.246094 L 211.742188 253.117188 Z M 211.902344 249.816406 " fill-opacity="1" fill-rule="nonzero"/><path fill="#24143b" d="M 211.722656 253.464844 L 214.390625 253.597656 L 214.230469 256.898438 L 211.5625 256.769531 Z M 211.722656 253.464844 " fill-opacity="1" fill-rule="nonzero"/><path fill="#24143b" d="M 211.367188 260.769531 L 214.035156 260.898438 L 213.875 264.199219 L 211.207031 264.070312 Z M 211.367188 260.769531 " fill-opacity="1" fill-rule="nonzero"/><path fill="#24143b" d="M 210.117188 286.324219 L 212.785156 286.457031 L 212.621094 289.757812 L 209.953125 289.625 Z M 210.117188 286.324219 " fill-opacity="1" fill-rule="nonzero"/><path fill="#24143b" d="M 217.015625 283.222656 L 219.6875 283.222656 L 219.6875 286.527344 L 217.015625 286.527344 Z M 217.015625 283.222656 " fill-opacity="1" fill-rule="nonzero"/><path fill="#44256f" d="M 217.015625 235.332031 L 219.683594 235.464844 L 219.519531 238.765625 L 216.855469 238.636719 Z M 217.015625 235.332031 " fill-opacity="1" fill-rule="nonzero"/><path fill="#44256f" d="M 216.84375 238.984375 L 219.507812 239.113281 L 219.347656 242.417969 L 216.679688 242.285156 Z M 216.84375 238.984375 " fill-opacity="1" fill-rule="nonzero"/><path fill="#44256f" d="M 216.480469 246.28125 L 219.148438 246.410156 L 218.988281 249.714844 L 216.320312 249.582031 Z M 216.480469 246.28125 " fill-opacity="1" fill-rule="nonzero"/><path fill="#44256f" d="M 215.945312 257.234375 L 218.613281 257.363281 L 218.453125 260.664062 L 215.785156 260.535156 Z M 215.945312 257.234375 " fill-opacity="1" fill-rule="nonzero"/><path fill="#44256f" d="M 215.589844 264.535156 L 218.257812 264.667969 L 218.097656 267.96875 L 215.429688 267.835938 Z M 215.589844 264.535156 " fill-opacity="1" fill-rule="nonzero"/><path fill="#44256f" d="M 215.050781 275.488281 L 217.71875 275.617188 L 217.558594 278.917969 L 214.890625 278.789062 Z M 215.050781 275.488281 " fill-opacity="1" fill-rule="nonzero"/><path fill="#44256f" d="M 214.875 279.140625 L 217.539062 279.269531 L 217.378906 282.570312 L 214.710938 282.441406 Z M 214.875 279.140625 " fill-opacity="1" fill-rule="nonzero"/><path fill="#44256f" d="M 214.695312 282.789062 L 217.363281 282.921875 L 217.199219 286.222656 L 214.535156 286.089844 Z M 214.695312 282.789062 " fill-opacity="1" fill-rule="nonzero"/><path fill="#44256f" d="M 214.160156 293.742188 L 216.828125 293.875 L 216.667969 297.175781 L 214 297.042969 Z M 214.160156 293.742188 " fill-opacity="1" fill-rule="nonzero"/><path fill="#44256f" d="M 213.804688 301.042969 L 216.472656 301.175781 L 216.308594 304.476562 L 213.644531 304.34375 Z M 213.804688 301.042969 " fill-opacity="1" fill-rule="nonzero"/><path fill="#6e4d9f" d="M 220.886719 242.757812 L 223.554688 242.890625 L 223.394531 246.191406 L 220.726562 246.058594 Z M 220.886719 242.757812 " fill-opacity="1" fill-rule="nonzero"/><path fill="#6e4d9f" d="M 219.636719 268.3125 L 222.304688 268.445312 L 222.140625 271.746094 L 219.472656 271.617188 Z M 219.636719 268.3125 " fill-opacity="1" fill-rule="nonzero"/><path fill="#7c6897" d="M 223.460938 272.160156 L 226.128906 272.289062 L 225.96875 275.59375 L 223.300781 275.460938 Z M 223.460938 272.160156 " fill-opacity="1" fill-rule="nonzero"/><path fill="#6e4d9f" d="M 225.65625 290.375 L 228.328125 290.375 L 228.328125 293.679688 L 225.65625 293.679688 Z M 225.65625 290.375 " fill-opacity="1" fill-rule="nonzero"/><path fill="#6e4d9f" d="M 217.855469 304.824219 L 220.523438 304.953125 L 220.359375 308.253906 L 217.691406 308.125 Z M 217.855469 304.824219 " fill-opacity="1" fill-rule="nonzero"/><path stroke-linecap="round" transform="matrix(0.491803, 0, 0, 0.491803, 68.19161, 148.700395)" fill="none" stroke-linejoin="round" d="M 302.489713 171.957257 L 349.04193 174.236815 " stroke="#ffffff" stroke-width="2" stroke-opacity="1" stroke-miterlimit="4"/><path stroke-linecap="round" transform="matrix(0.491803, 0, 0, 0.491803, 68.19161, 148.700395)" fill="none" stroke-linejoin="round" d="M 310.718359 179.653742 L 357.278519 181.917414 " stroke="#ffffff" stroke-width="2" stroke-opacity="1" stroke-miterlimit="4"/><path stroke-linecap="round" transform="matrix(0.491803, 0, 0, 0.491803, 68.19161, 148.700395)" fill="none" stroke-linejoin="round" d="M 310.400651 186.357389 L 345.197659 188.057128 " stroke="#ffffff" stroke-width="2" stroke-opacity="1" stroke-miterlimit="4"/><path stroke-linecap="round" transform="matrix(0.491803, 0, 0, 0.491803, 68.19161, 148.700395)" fill="none" stroke-linejoin="round" d="M 318.152735 194.586035 L 352.949743 196.293718 " stroke="#ffffff" stroke-width="2" stroke-opacity="1" stroke-miterlimit="4"/><path stroke-linecap="round" transform="matrix(0.491803, 0, 0, 0.491803, 68.19161, 148.700395)" fill="none" stroke-linejoin="round" d="M 310.082943 202.036296 L 320.027214 202.528744 " stroke="#ffffff" stroke-width="2" stroke-opacity="1" stroke-miterlimit="4"/><path stroke-linecap="round" transform="matrix(0.491803, 0, 0, 0.491803, 68.19161, 148.700395)" fill="none" stroke-linejoin="round" d="M 300.66289 209.430958 L 335.459898 211.130698 " stroke="#ffffff" stroke-width="2" stroke-opacity="1" stroke-miterlimit="4"/><path stroke-linecap="round" transform="matrix(0.491803, 0, 0, 0.491803, 68.19161, 148.700395)" fill="none" stroke-linejoin="round" d="M 300.329296 216.142547 L 346.889456 218.406219 " stroke="#ffffff" stroke-width="2" stroke-opacity="1" stroke-miterlimit="4"/><path stroke-linecap="round" transform="matrix(0.491803, 0, 0, 0.491803, 68.19161, 148.700395)" fill="none" stroke-linejoin="round" d="M 308.542057 224.387079 L 343.339065 226.086819 " stroke="#ffffff" stroke-width="2" stroke-opacity="1" stroke-miterlimit="4"/><path stroke-linecap="round" transform="matrix(0.491803, 0, 0, 0.491803, 68.19161, 148.700395)" fill="none" stroke-linejoin="round" d="M 300.019531 231.821455 L 309.963802 232.298017 " stroke="#ffffff" stroke-width="2" stroke-opacity="1" stroke-miterlimit="4"/><path stroke-linecap="round" transform="matrix(0.491803, 0, 0, 0.491803, 68.19161, 148.700395)" fill="none" stroke-linejoin="round" d="M 307.858984 238.366247 L 342.663935 240.073929 " stroke="#ffffff" stroke-width="2" stroke-opacity="1" stroke-miterlimit="4"/><path stroke-linecap="round" transform="matrix(0.491803, 0, 0, 0.491803, 68.19161, 148.700395)" fill="none" stroke-linejoin="round" d="M 316.508594 246.64255 L 330.98021 247.341508 " stroke="#ffffff" stroke-width="2" stroke-opacity="1" stroke-miterlimit="4"/><path stroke-linecap="round" transform="matrix(0.491803, 0, 0, 0.491803, 68.19161, 148.700395)" fill="none" stroke-linejoin="round" d="M 323.76823 254.73617 L 345.507425 255.800493 " stroke="#ffffff" stroke-width="2" stroke-opacity="1" stroke-miterlimit="4"/><path stroke-linecap="round" transform="matrix(0.491803, 0, 0, 0.491803, 68.19161, 148.700395)" fill="none" stroke-linejoin="round" d="M 307.326823 261.543072 L 329.07396 262.599452 " stroke="#ffffff" stroke-width="2" stroke-opacity="1" stroke-miterlimit="4"/><path stroke-linecap="round" transform="matrix(0.491803, 0, 0, 0.491803, 68.19161, 148.700395)" fill="none" stroke-linejoin="round" d="M 306.977344 268.81065 L 328.716538 269.867031 " stroke="#ffffff" stroke-width="2" stroke-opacity="1" stroke-miterlimit="4"/><path stroke-linecap="round" transform="matrix(0.491803, 0, 0, 0.491803, 68.19161, 148.700395)" fill="none" stroke-linejoin="round" d="M 306.897916 276.427708 L 321.369532 277.142552 " stroke="#ffffff" stroke-width="2" stroke-opacity="1" stroke-miterlimit="4"/><path stroke-linecap="round" transform="matrix(0.491803, 0, 0, 0.491803, 68.19161, 148.700395)" fill="none" stroke-linejoin="round" d="M 297.477864 283.82237 L 332.282814 285.52211 " stroke="#ffffff" stroke-width="2" stroke-opacity="1" stroke-miterlimit="4"/><path stroke-linecap="round" transform="matrix(0.491803, 0, 0, 0.491803, 68.19161, 148.700395)" fill="none" stroke-linejoin="round" d="M 297.128384 291.089949 L 329.216929 292.662605 " stroke="#ffffff" stroke-width="2" stroke-opacity="1" stroke-miterlimit="4"/><path stroke-linecap="round" transform="matrix(0.491803, 0, 0, 0.491803, 68.19161, 148.700395)" fill="none" stroke-linejoin="round" d="M 305.388802 298.222502 L 337.477346 299.787215 " stroke="#ffffff" stroke-width="2" stroke-opacity="1" stroke-miterlimit="4"/><path stroke-linecap="round" transform="matrix(0.491803, 0, 0, 0.491803, 68.19161, 148.700395)" fill="none" stroke-linejoin="round" d="M 313.140886 306.451148 L 323.077215 306.927711 " stroke="#ffffff" stroke-width="2" stroke-opacity="1" stroke-miterlimit="4"/><path stroke-linecap="round" transform="matrix(0.491803, 0, 0, 0.491803, 68.19161, 148.700395)" fill="none" stroke-linejoin="round" d="M 304.65013 313.321591 L 321.520444 314.417685 " stroke="#ffffff" stroke-width="2" stroke-opacity="1" stroke-miterlimit="4"/><path stroke-linecap="round" transform="matrix(0.491803, 0, 0, 0.491803, 68.19161, 148.700395)" fill="none" stroke-linejoin="round" d="M 312.402214 321.550238 L 328.51797 323.416774 " stroke="#ffffff" stroke-width="2" stroke-opacity="1" stroke-miterlimit="4"/><path fill="#ffffff" d="M 248.972656 233.453125 L 250.445312 233.511719 C 250.609375 233.519531 250.765625 233.558594 250.914062 233.625 C 251.058594 233.695312 251.191406 233.789062 251.300781 233.910156 C 251.410156 234.027344 251.492188 234.164062 251.550781 234.320312 C 251.605469 234.472656 251.628906 234.628906 251.625 234.792969 C 251.617188 234.957031 251.578125 235.109375 251.511719 235.257812 C 251.441406 235.40625 251.347656 235.535156 251.226562 235.644531 C 251.109375 235.757812 250.972656 235.839844 250.820312 235.894531 C 250.664062 235.953125 250.507812 235.976562 250.34375 235.96875 L 248.871094 235.910156 C 248.707031 235.902344 248.550781 235.863281 248.402344 235.796875 C 248.257812 235.726562 248.128906 235.632812 248.015625 235.511719 C 247.90625 235.394531 247.824219 235.257812 247.765625 235.105469 C 247.710938 234.949219 247.6875 234.792969 247.691406 234.628906 C 247.699219 234.46875 247.738281 234.3125 247.804688 234.164062 C 247.875 234.015625 247.96875 233.886719 248.089844 233.777344 C 248.207031 233.664062 248.34375 233.582031 248.5 233.527344 C 248.652344 233.46875 248.808594 233.445312 248.972656 233.453125 Z M 248.972656 233.453125 " fill-opacity="1" fill-rule="nonzero"/><g clip-path="url(#8cefff8bd1)"><path stroke-linecap="butt" transform="matrix(0.491803, 0, 0, 0.491803, 68.19161, 148.700395)" fill="none" stroke-linejoin="miter" d="M 384.998574 175.547362 L 432.003525 177.501268 Z M 384.998574 175.547362 " stroke="#ffffff" stroke-width="3" stroke-opacity="1" stroke-miterlimit="10"/></g><path fill="#ffffff" d="M 248.828125 236.8125 L 250.300781 236.875 C 250.464844 236.878906 250.621094 236.917969 250.769531 236.984375 C 250.917969 237.054688 251.046875 237.148438 251.15625 237.269531 C 251.265625 237.390625 251.351562 237.527344 251.40625 237.679688 C 251.460938 237.832031 251.488281 237.988281 251.480469 238.152344 C 251.472656 238.316406 251.433594 238.472656 251.367188 238.617188 C 251.296875 238.765625 251.203125 238.894531 251.085938 239.007812 C 250.964844 239.117188 250.828125 239.199219 250.675781 239.257812 C 250.523438 239.3125 250.363281 239.335938 250.199219 239.332031 L 248.726562 239.269531 C 248.5625 239.261719 248.40625 239.226562 248.261719 239.15625 C 248.113281 239.085938 247.984375 238.992188 247.871094 238.875 C 247.761719 238.753906 247.679688 238.617188 247.621094 238.464844 C 247.566406 238.3125 247.542969 238.152344 247.550781 237.988281 C 247.554688 237.828125 247.59375 237.671875 247.660156 237.523438 C 247.730469 237.375 247.824219 237.246094 247.945312 237.136719 C 248.066406 237.027344 248.199219 236.941406 248.355469 236.886719 C 248.507812 236.832031 248.664062 236.804688 248.828125 236.8125 Z M 248.828125 236.8125 " fill-opacity="1" fill-rule="nonzero"/><g clip-path="url(#646f364aca)"><path stroke-linecap="butt" transform="matrix(0.491803, 0, 0, 0.491803, 68.19161, 148.700395)" fill="none" stroke-linejoin="miter" d="M 398.127872 182.949966 L 426.642197 184.13343 " stroke="#ffffff" stroke-width="3" stroke-opacity="1" stroke-miterlimit="10"/></g><g clip-path="url(#53e50f6897)"><path stroke-linecap="butt" transform="matrix(0.491803, 0, 0, 0.491803, 68.19161, 148.700395)" fill="none" stroke-linejoin="miter" d="M 384.680865 182.386034 L 396.380476 182.878482 " stroke="#ffffff" stroke-width="3" stroke-opacity="1" stroke-miterlimit="10"/></g><path fill="#ffffff" d="M 248.695312 240.175781 L 250.167969 240.238281 C 250.332031 240.246094 250.488281 240.28125 250.632812 240.351562 C 250.78125 240.421875 250.910156 240.515625 251.023438 240.632812 C 251.132812 240.753906 251.214844 240.890625 251.273438 241.042969 C 251.328125 241.195312 251.351562 241.355469 251.347656 241.519531 C 251.339844 241.679688 251.300781 241.835938 251.234375 241.984375 C 251.164062 242.132812 251.070312 242.261719 250.949219 242.371094 C 250.832031 242.480469 250.695312 242.566406 250.539062 242.621094 C 250.386719 242.675781 250.230469 242.703125 250.066406 242.695312 L 248.59375 242.632812 C 248.429688 242.628906 248.273438 242.589844 248.125 242.519531 C 247.976562 242.453125 247.847656 242.359375 247.738281 242.238281 C 247.628906 242.117188 247.546875 241.980469 247.488281 241.828125 C 247.433594 241.675781 247.40625 241.519531 247.414062 241.355469 C 247.421875 241.191406 247.460938 241.035156 247.527344 240.890625 C 247.597656 240.742188 247.691406 240.613281 247.808594 240.5 C 247.929688 240.390625 248.066406 240.308594 248.21875 240.25 C 248.375 240.195312 248.53125 240.171875 248.695312 240.175781 Z M 248.695312 240.175781 " fill-opacity="1" fill-rule="nonzero"/><path stroke-linecap="butt" transform="matrix(0.491803, 0, 0, 0.491803, 68.19161, 148.700395)" fill="none" stroke-linejoin="miter" d="M 424.362639 190.892675 L 436.070192 191.369238 " stroke="#ffffff" stroke-width="3" stroke-opacity="1" stroke-miterlimit="10"/><path stroke-linecap="butt" transform="matrix(0.491803, 0, 0, 0.491803, 68.19161, 148.700395)" fill="none" stroke-linejoin="miter" d="M 393.711725 189.621842 L 422.218108 190.797363 " stroke="#ffffff" stroke-width="3" stroke-opacity="1" stroke-miterlimit="10"/><path fill="#ffffff" d="M 252.628906 242.914062 L 254.101562 242.914062 C 254.265625 242.914062 254.421875 242.945312 254.574219 243.007812 C 254.722656 243.070312 254.855469 243.160156 254.972656 243.273438 C 255.085938 243.390625 255.175781 243.523438 255.238281 243.675781 C 255.300781 243.824219 255.332031 243.980469 255.332031 244.144531 C 255.332031 244.308594 255.300781 244.464844 255.238281 244.613281 C 255.175781 244.765625 255.085938 244.898438 254.972656 245.015625 C 254.855469 245.128906 254.722656 245.21875 254.574219 245.28125 C 254.421875 245.34375 254.265625 245.375 254.101562 245.375 L 252.628906 245.375 C 252.464844 245.375 252.308594 245.34375 252.15625 245.28125 C 252.007812 245.21875 251.875 245.128906 251.757812 245.015625 C 251.644531 244.898438 251.554688 244.765625 251.492188 244.613281 C 251.429688 244.464844 251.398438 244.308594 251.398438 244.144531 C 251.398438 243.980469 251.429688 243.824219 251.492188 243.675781 C 251.554688 243.523438 251.644531 243.390625 251.757812 243.273438 C 251.875 243.160156 252.007812 243.070312 252.15625 243.007812 C 252.308594 242.945312 252.464844 242.914062 252.628906 242.914062 Z M 252.628906 242.914062 " fill-opacity="1" fill-rule="nonzero"/><path stroke-linecap="butt" transform="matrix(0.491803, 0, 0, 0.491803, 68.19161, 148.700395)" fill="none" stroke-linejoin="miter" d="M 403.918106 210.598536 L 499.953401 214.577834 " stroke="#ffffff" stroke-width="3" stroke-opacity="1" stroke-miterlimit="10"/><path fill="#ffffff" d="M 248.554688 243.542969 L 250.027344 243.605469 C 250.191406 243.609375 250.347656 243.648438 250.496094 243.714844 C 250.644531 243.785156 250.773438 243.878906 250.882812 244 C 250.992188 244.121094 251.078125 244.257812 251.132812 244.410156 C 251.1875 244.5625 251.214844 244.71875 251.207031 244.882812 C 251.199219 245.046875 251.164062 245.203125 251.09375 245.347656 C 251.023438 245.496094 250.929688 245.625 250.8125 245.738281 C 250.691406 245.847656 250.554688 245.929688 250.402344 245.988281 C 250.25 246.042969 250.089844 246.066406 249.925781 246.0625 L 248.453125 246 C 248.289062 245.992188 248.136719 245.957031 247.988281 245.886719 C 247.839844 245.816406 247.710938 245.722656 247.601562 245.605469 C 247.488281 245.484375 247.40625 245.347656 247.351562 245.195312 C 247.292969 245.042969 247.269531 244.882812 247.277344 244.71875 C 247.28125 244.558594 247.320312 244.402344 247.390625 244.253906 C 247.457031 244.105469 247.550781 243.976562 247.671875 243.867188 C 247.792969 243.757812 247.929688 243.671875 248.082031 243.617188 C 248.234375 243.5625 248.390625 243.535156 248.554688 243.542969 Z M 248.554688 243.542969 " fill-opacity="1" fill-rule="nonzero"/><path stroke-linecap="butt" transform="matrix(0.491803, 0, 0, 0.491803, 68.19161, 148.700395)" fill="none" stroke-linejoin="miter" d="M 415.482691 197.373926 L 490.517462 200.479525 " stroke="#ffffff" stroke-width="3" stroke-opacity="1" stroke-miterlimit="10"/><path stroke-linecap="butt" transform="matrix(0.491803, 0, 0, 0.491803, 68.19161, 148.700395)" fill="none" stroke-linejoin="miter" d="M 393.433731 196.460514 L 413.16342 197.278613 " stroke="#ffffff" stroke-width="3" stroke-opacity="1" stroke-miterlimit="10"/><path fill="#ffffff" d="M 248.410156 246.90625 L 249.886719 246.96875 C 250.046875 246.976562 250.203125 247.011719 250.351562 247.082031 C 250.5 247.148438 250.628906 247.246094 250.738281 247.363281 C 250.847656 247.484375 250.933594 247.621094 250.988281 247.773438 C 251.046875 247.925781 251.070312 248.085938 251.0625 248.246094 C 251.054688 248.410156 251.019531 248.566406 250.949219 248.714844 C 250.882812 248.863281 250.789062 248.992188 250.667969 249.101562 C 250.546875 249.210938 250.410156 249.296875 250.257812 249.351562 C 250.105469 249.40625 249.945312 249.433594 249.785156 249.425781 L 248.308594 249.363281 C 248.148438 249.359375 247.992188 249.320312 247.84375 249.25 C 247.695312 249.183594 247.566406 249.089844 247.457031 248.96875 C 247.34375 248.847656 247.261719 248.710938 247.207031 248.558594 C 247.148438 248.40625 247.125 248.25 247.132812 248.085938 C 247.136719 247.921875 247.175781 247.765625 247.246094 247.617188 C 247.3125 247.472656 247.40625 247.34375 247.527344 247.230469 C 247.648438 247.121094 247.785156 247.039062 247.9375 246.980469 C 248.089844 246.925781 248.25 246.902344 248.410156 246.90625 Z M 248.410156 246.90625 " fill-opacity="1" fill-rule="nonzero"/><path stroke-linecap="butt" transform="matrix(0.491803, 0, 0, 0.491803, 68.19161, 148.700395)" fill="none" stroke-linejoin="miter" d="M 425.180738 204.720932 L 500.231395 207.818588 " stroke="#ffffff" stroke-width="3" stroke-opacity="1" stroke-miterlimit="10"/><path stroke-linecap="butt" transform="matrix(0.491803, 0, 0, 0.491803, 68.19161, 148.700395)" fill="none" stroke-linejoin="miter" d="M 404.100789 203.759864 L 423.830478 204.57002 " stroke="#ffffff" stroke-width="3" stroke-opacity="1" stroke-miterlimit="10"/><path fill="#ffffff" d="M 248.136719 253.636719 L 249.613281 253.699219 C 249.773438 253.707031 249.929688 253.742188 250.078125 253.8125 C 250.226562 253.878906 250.355469 253.976562 250.464844 254.09375 C 250.578125 254.214844 250.660156 254.351562 250.714844 254.503906 C 250.773438 254.65625 250.796875 254.816406 250.789062 254.976562 C 250.78125 255.140625 250.746094 255.296875 250.675781 255.445312 C 250.609375 255.59375 250.515625 255.722656 250.394531 255.832031 C 250.273438 255.941406 250.136719 256.027344 249.984375 256.082031 C 249.832031 256.136719 249.671875 256.164062 249.511719 256.15625 L 248.035156 256.09375 C 247.875 256.089844 247.71875 256.050781 247.570312 255.980469 C 247.421875 255.914062 247.292969 255.820312 247.183594 255.699219 C 247.070312 255.578125 246.988281 255.441406 246.933594 255.289062 C 246.875 255.136719 246.851562 254.980469 246.859375 254.816406 C 246.867188 254.652344 246.902344 254.496094 246.972656 254.347656 C 247.039062 254.203125 247.132812 254.074219 247.253906 253.960938 C 247.375 253.851562 247.511719 253.769531 247.664062 253.710938 C 247.816406 253.65625 247.976562 253.632812 248.136719 253.636719 Z M 248.136719 253.636719 " fill-opacity="1" fill-rule="nonzero"/><path stroke-linecap="butt" transform="matrix(0.491803, 0, 0, 0.491803, 68.19161, 148.700395)" fill="none" stroke-linejoin="miter" d="M 382.639589 216.547625 L 399.748184 217.302183 " stroke="#ffffff" stroke-width="3" stroke-opacity="1" stroke-miterlimit="10"/><path fill="#ffffff" d="M 247.992188 257.003906 L 249.46875 257.0625 C 249.632812 257.070312 249.785156 257.109375 249.933594 257.175781 C 250.082031 257.246094 250.210938 257.339844 250.320312 257.460938 C 250.433594 257.578125 250.515625 257.714844 250.570312 257.871094 C 250.628906 258.023438 250.652344 258.179688 250.644531 258.34375 C 250.640625 258.507812 250.601562 258.660156 250.53125 258.808594 C 250.464844 258.957031 250.371094 259.085938 250.25 259.195312 C 250.128906 259.308594 249.992188 259.390625 249.839844 259.445312 C 249.6875 259.503906 249.53125 259.527344 249.367188 259.519531 L 247.890625 259.460938 C 247.730469 259.453125 247.574219 259.414062 247.425781 259.347656 C 247.277344 259.277344 247.148438 259.183594 247.039062 259.0625 C 246.929688 258.945312 246.84375 258.808594 246.789062 258.65625 C 246.734375 258.5 246.707031 258.34375 246.714844 258.179688 C 246.722656 258.019531 246.757812 257.863281 246.828125 257.714844 C 246.894531 257.566406 246.992188 257.4375 247.109375 257.328125 C 247.230469 257.214844 247.367188 257.132812 247.519531 257.078125 C 247.671875 257.019531 247.832031 256.996094 247.992188 257.003906 Z M 247.992188 257.003906 " fill-opacity="1" fill-rule="nonzero"/><path stroke-linecap="butt" transform="matrix(0.491803, 0, 0, 0.491803, 68.19161, 148.700395)" fill="none" stroke-linejoin="miter" d="M 416.523186 224.831871 L 424.322926 225.149579 " stroke="#ffffff" stroke-width="3" stroke-opacity="1" stroke-miterlimit="10"/><path stroke-linecap="butt" transform="matrix(0.491803, 0, 0, 0.491803, 68.19161, 148.700395)" fill="none" stroke-linejoin="miter" d="M 395.808601 223.966116 L 414.918758 224.760386 " stroke="#ffffff" stroke-width="3" stroke-opacity="1" stroke-miterlimit="10"/><path stroke-linecap="butt" transform="matrix(0.491803, 0, 0, 0.491803, 68.19161, 148.700395)" fill="none" stroke-linejoin="miter" d="M 382.353652 223.410126 L 394.061205 223.902574 " stroke="#ffffff" stroke-width="3" stroke-opacity="1" stroke-miterlimit="10"/><path fill="#ffffff" d="M 247.855469 260.367188 L 249.328125 260.429688 C 249.492188 260.4375 249.648438 260.472656 249.796875 260.542969 C 249.941406 260.609375 250.074219 260.707031 250.183594 260.824219 C 250.292969 260.945312 250.375 261.082031 250.433594 261.234375 C 250.488281 261.386719 250.511719 261.546875 250.507812 261.707031 C 250.5 261.871094 250.460938 262.027344 250.394531 262.175781 C 250.324219 262.324219 250.230469 262.453125 250.109375 262.5625 C 249.992188 262.671875 249.855469 262.757812 249.703125 262.8125 C 249.546875 262.867188 249.390625 262.894531 249.226562 262.886719 L 247.753906 262.824219 C 247.589844 262.820312 247.433594 262.78125 247.285156 262.710938 C 247.140625 262.644531 247.011719 262.550781 246.898438 262.429688 C 246.789062 262.308594 246.707031 262.171875 246.648438 262.019531 C 246.59375 261.867188 246.570312 261.707031 246.574219 261.546875 C 246.582031 261.382812 246.621094 261.226562 246.6875 261.078125 C 246.757812 260.933594 246.851562 260.800781 246.972656 260.691406 C 247.089844 260.582031 247.226562 260.5 247.382812 260.441406 C 247.535156 260.386719 247.691406 260.363281 247.855469 260.367188 Z M 247.855469 260.367188 " fill-opacity="1" fill-rule="nonzero"/><path stroke-linecap="butt" transform="matrix(0.491803, 0, 0, 0.491803, 68.19161, 148.700395)" fill="none" stroke-linejoin="miter" d="M 422.043368 231.908825 L 454.131913 233.2432 " stroke="#ffffff" stroke-width="3" stroke-opacity="1" stroke-miterlimit="10"/><path stroke-linecap="butt" transform="matrix(0.491803, 0, 0, 0.491803, 68.19161, 148.700395)" fill="none" stroke-linejoin="miter" d="M 391.376569 230.637991 L 419.898837 231.821455 " stroke="#ffffff" stroke-width="3" stroke-opacity="1" stroke-miterlimit="10"/><path fill="#ffffff" d="M 247.722656 263.730469 L 249.195312 263.789062 C 249.359375 263.796875 249.511719 263.835938 249.660156 263.902344 C 249.808594 263.972656 249.9375 264.066406 250.050781 264.183594 C 250.160156 264.304688 250.242188 264.441406 250.296875 264.59375 C 250.355469 264.746094 250.378906 264.90625 250.371094 265.070312 C 250.367188 265.230469 250.328125 265.386719 250.257812 265.535156 C 250.191406 265.683594 250.097656 265.8125 249.976562 265.921875 C 249.855469 266.03125 249.71875 266.117188 249.566406 266.171875 C 249.414062 266.230469 249.257812 266.253906 249.09375 266.246094 L 247.621094 266.183594 C 247.457031 266.179688 247.300781 266.140625 247.152344 266.074219 C 247.003906 266.003906 246.875 265.910156 246.765625 265.789062 C 246.65625 265.667969 246.570312 265.535156 246.515625 265.378906 C 246.460938 265.226562 246.433594 265.070312 246.441406 264.90625 C 246.449219 264.742188 246.484375 264.585938 246.554688 264.441406 C 246.625 264.292969 246.71875 264.164062 246.835938 264.050781 C 246.957031 263.941406 247.09375 263.859375 247.246094 263.800781 C 247.398438 263.746094 247.558594 263.722656 247.722656 263.730469 Z M 247.722656 263.730469 " fill-opacity="1" fill-rule="nonzero"/><path stroke-linecap="butt" transform="matrix(0.491803, 0, 0, 0.491803, 68.19161, 148.700395)" fill="none" stroke-linejoin="miter" d="M 437.79376 239.406742 L 488.198191 241.503617 " stroke="#ffffff" stroke-width="3" stroke-opacity="1" stroke-miterlimit="10"/><path stroke-linecap="butt" transform="matrix(0.491803, 0, 0, 0.491803, 68.19161, 148.700395)" fill="none" stroke-linejoin="miter" d="M 413.147534 238.390075 L 435.013812 239.303487 " stroke="#ffffff" stroke-width="3" stroke-opacity="1" stroke-miterlimit="10"/><path stroke-linecap="butt" transform="matrix(0.491803, 0, 0, 0.491803, 68.19161, 148.700395)" fill="none" stroke-linejoin="miter" d="M 391.098574 237.476664 L 410.828263 238.302705 " stroke="#ffffff" stroke-width="3" stroke-opacity="1" stroke-miterlimit="10"/><path fill="#ffffff" d="M 247.578125 267.09375 L 249.050781 267.15625 C 249.214844 267.160156 249.371094 267.199219 249.515625 267.265625 C 249.664062 267.335938 249.792969 267.429688 249.90625 267.550781 C 250.015625 267.671875 250.097656 267.808594 250.15625 267.960938 C 250.210938 268.113281 250.234375 268.269531 250.230469 268.433594 C 250.222656 268.597656 250.183594 268.753906 250.117188 268.898438 C 250.046875 269.046875 249.953125 269.175781 249.832031 269.289062 C 249.714844 269.398438 249.578125 269.480469 249.421875 269.539062 C 249.269531 269.59375 249.113281 269.617188 248.949219 269.613281 L 247.476562 269.550781 C 247.3125 269.542969 247.15625 269.507812 247.007812 269.4375 C 246.859375 269.367188 246.730469 269.273438 246.621094 269.15625 C 246.511719 269.035156 246.429688 268.898438 246.371094 268.746094 C 246.316406 268.59375 246.289062 268.433594 246.296875 268.269531 C 246.304688 268.109375 246.34375 267.953125 246.410156 267.804688 C 246.480469 267.65625 246.574219 267.527344 246.695312 267.417969 C 246.8125 267.308594 246.949219 267.222656 247.101562 267.167969 C 247.257812 267.113281 247.414062 267.085938 247.578125 267.09375 Z M 247.578125 267.09375 " fill-opacity="1" fill-rule="nonzero"/><path stroke-linecap="butt" transform="matrix(0.491803, 0, 0, 0.491803, 68.19161, 148.700395)" fill="none" stroke-linejoin="miter" d="M 381.170188 243.9182 L 409.67657 245.101664 " stroke="#ffffff" stroke-width="3" stroke-opacity="1" stroke-miterlimit="10"/><path fill="#ffffff" d="M 247.160156 277.183594 L 248.632812 277.246094 C 248.796875 277.25 248.953125 277.289062 249.101562 277.359375 C 249.25 277.425781 249.378906 277.519531 249.488281 277.640625 C 249.597656 277.761719 249.683594 277.898438 249.738281 278.050781 C 249.792969 278.203125 249.820312 278.363281 249.8125 278.523438 C 249.804688 278.6875 249.765625 278.84375 249.699219 278.992188 C 249.628906 279.136719 249.535156 279.269531 249.417969 279.378906 C 249.296875 279.488281 249.160156 279.570312 249.007812 279.628906 C 248.851562 279.683594 248.695312 279.707031 248.53125 279.703125 L 247.058594 279.640625 C 246.894531 279.632812 246.738281 279.597656 246.59375 279.527344 C 246.445312 279.460938 246.316406 279.363281 246.203125 279.246094 C 246.09375 279.125 246.011719 278.988281 245.953125 278.835938 C 245.898438 278.683594 245.875 278.523438 245.878906 278.363281 C 245.886719 278.199219 245.925781 278.042969 245.992188 277.894531 C 246.0625 277.746094 246.15625 277.617188 246.277344 277.507812 C 246.398438 277.398438 246.53125 277.3125 246.6875 277.257812 C 246.839844 277.203125 246.996094 277.175781 247.160156 277.183594 Z M 247.160156 277.183594 " fill-opacity="1" fill-rule="nonzero"/><path stroke-linecap="butt" transform="matrix(0.491803, 0, 0, 0.491803, 68.19161, 148.700395)" fill="none" stroke-linejoin="miter" d="M 391.376569 264.902838 L 487.40392 268.882135 " stroke="#ffffff" stroke-width="3" stroke-opacity="1" stroke-miterlimit="10"/><path fill="#ffffff" d="M 247.4375 270.457031 L 248.914062 270.519531 C 249.074219 270.527344 249.230469 270.5625 249.378906 270.632812 C 249.527344 270.703125 249.65625 270.796875 249.765625 270.914062 C 249.875 271.035156 249.960938 271.171875 250.015625 271.324219 C 250.070312 271.476562 250.097656 271.636719 250.089844 271.800781 C 250.082031 271.960938 250.046875 272.117188 249.976562 272.265625 C 249.910156 272.414062 249.8125 272.542969 249.695312 272.652344 C 249.574219 272.761719 249.4375 272.847656 249.285156 272.902344 C 249.132812 272.957031 248.972656 272.984375 248.808594 272.976562 L 247.335938 272.914062 C 247.171875 272.910156 247.019531 272.871094 246.871094 272.800781 C 246.722656 272.734375 246.59375 272.640625 246.484375 272.519531 C 246.371094 272.398438 246.289062 272.261719 246.234375 272.109375 C 246.175781 271.957031 246.152344 271.800781 246.160156 271.636719 C 246.164062 271.472656 246.203125 271.316406 246.273438 271.171875 C 246.339844 271.023438 246.433594 270.894531 246.554688 270.78125 C 246.675781 270.671875 246.8125 270.589844 246.964844 270.53125 C 247.117188 270.476562 247.273438 270.453125 247.4375 270.457031 Z M 247.4375 270.457031 " fill-opacity="1" fill-rule="nonzero"/><path stroke-linecap="butt" transform="matrix(0.491803, 0, 0, 0.491803, 68.19161, 148.700395)" fill="none" stroke-linejoin="miter" d="M 402.941153 251.678227 L 477.983868 254.783826 " stroke="#ffffff" stroke-width="3" stroke-opacity="1" stroke-miterlimit="10"/><path stroke-linecap="butt" transform="matrix(0.491803, 0, 0, 0.491803, 68.19161, 148.700395)" fill="none" stroke-linejoin="miter" d="M 380.876308 250.756873 L 400.621882 251.582915 " stroke="#ffffff" stroke-width="3" stroke-opacity="1" stroke-miterlimit="10"/><path fill="#ffffff" d="M 247.289062 273.824219 L 248.78125 273.886719 C 248.945312 273.890625 249.097656 273.929688 249.246094 273.996094 C 249.390625 274.066406 249.519531 274.160156 249.628906 274.277344 C 249.738281 274.398438 249.820312 274.53125 249.878906 274.683594 C 249.933594 274.835938 249.957031 274.992188 249.953125 275.15625 L 249.949219 275.175781 C 249.945312 275.335938 249.90625 275.488281 249.839844 275.636719 C 249.769531 275.785156 249.675781 275.910156 249.558594 276.019531 C 249.4375 276.128906 249.304688 276.214844 249.152344 276.269531 C 249 276.324219 248.84375 276.347656 248.679688 276.34375 L 247.1875 276.28125 C 247.027344 276.273438 246.871094 276.238281 246.726562 276.167969 C 246.578125 276.101562 246.449219 276.007812 246.339844 275.886719 C 246.230469 275.769531 246.148438 275.632812 246.09375 275.480469 C 246.039062 275.328125 246.011719 275.171875 246.019531 275.011719 L 246.019531 274.992188 C 246.027344 274.832031 246.0625 274.675781 246.132812 274.527344 C 246.199219 274.382812 246.292969 274.253906 246.414062 274.144531 C 246.53125 274.035156 246.667969 273.953125 246.820312 273.898438 C 246.972656 273.839844 247.128906 273.816406 247.289062 273.824219 Z M 247.289062 273.824219 " fill-opacity="1" fill-rule="nonzero"/><path stroke-linecap="butt" transform="matrix(0.491803, 0, 0, 0.491803, 68.19161, 148.700395)" fill="none" stroke-linejoin="miter" d="M 391.551309 258.056222 L 411.28894 258.866379 " stroke="#ffffff" stroke-width="3" stroke-opacity="1" stroke-miterlimit="10"/><path fill="#ffffff" d="M 247.019531 280.550781 L 248.496094 280.609375 C 248.65625 280.617188 248.8125 280.65625 248.960938 280.722656 C 249.109375 280.792969 249.238281 280.886719 249.347656 281.007812 C 249.460938 281.125 249.542969 281.261719 249.597656 281.414062 C 249.65625 281.570312 249.679688 281.726562 249.671875 281.890625 C 249.667969 282.050781 249.628906 282.207031 249.558594 282.355469 C 249.492188 282.503906 249.398438 282.632812 249.277344 282.742188 C 249.15625 282.855469 249.019531 282.9375 248.867188 282.992188 C 248.714844 283.050781 248.554688 283.074219 248.394531 283.066406 L 246.917969 283.007812 C 246.757812 283 246.601562 282.960938 246.453125 282.894531 C 246.304688 282.824219 246.175781 282.730469 246.066406 282.609375 C 245.957031 282.492188 245.871094 282.355469 245.816406 282.199219 C 245.757812 282.046875 245.734375 281.890625 245.742188 281.726562 C 245.75 281.5625 245.785156 281.410156 245.855469 281.261719 C 245.921875 281.113281 246.019531 280.984375 246.136719 280.875 C 246.257812 280.761719 246.394531 280.679688 246.546875 280.625 C 246.699219 280.566406 246.859375 280.542969 247.019531 280.550781 Z M 247.019531 280.550781 " fill-opacity="1" fill-rule="nonzero"/><path stroke-linecap="butt" transform="matrix(0.491803, 0, 0, 0.491803, 68.19161, 148.700395)" fill="none" stroke-linejoin="miter" d="M 424.720061 273.139427 L 432.511859 273.457135 " stroke="#ffffff" stroke-width="3" stroke-opacity="1" stroke-miterlimit="10"/><path stroke-linecap="butt" transform="matrix(0.491803, 0, 0, 0.491803, 68.19161, 148.700395)" fill="none" stroke-linejoin="miter" d="M 403.997534 272.281614 L 423.107691 273.067942 " stroke="#ffffff" stroke-width="3" stroke-opacity="1" stroke-miterlimit="10"/><path stroke-linecap="butt" transform="matrix(0.491803, 0, 0, 0.491803, 68.19161, 148.700395)" fill="none" stroke-linejoin="miter" d="M 390.550527 271.717682 L 402.25808 272.21013 " stroke="#ffffff" stroke-width="3" stroke-opacity="1" stroke-miterlimit="10"/><path fill="#ffffff" d="M 246.882812 283.917969 L 248.355469 283.980469 C 248.519531 283.988281 248.675781 284.023438 248.824219 284.09375 C 248.96875 284.160156 249.097656 284.257812 249.210938 284.375 C 249.320312 284.496094 249.402344 284.632812 249.460938 284.785156 C 249.515625 284.9375 249.539062 285.097656 249.535156 285.257812 C 249.527344 285.421875 249.488281 285.578125 249.421875 285.726562 C 249.351562 285.875 249.257812 286.003906 249.136719 286.113281 C 249.019531 286.222656 248.882812 286.308594 248.726562 286.363281 C 248.574219 286.417969 248.417969 286.445312 248.253906 286.4375 L 246.78125 286.375 C 246.617188 286.371094 246.460938 286.332031 246.3125 286.261719 C 246.167969 286.195312 246.035156 286.101562 245.925781 285.980469 C 245.816406 285.859375 245.734375 285.722656 245.675781 285.570312 C 245.621094 285.417969 245.597656 285.261719 245.601562 285.097656 C 245.609375 284.933594 245.648438 284.777344 245.714844 284.628906 C 245.785156 284.484375 245.878906 284.355469 246 284.242188 C 246.117188 284.132812 246.253906 284.050781 246.40625 283.992188 C 246.5625 283.9375 246.71875 283.914062 246.882812 283.917969 Z M 246.882812 283.917969 " fill-opacity="1" fill-rule="nonzero"/><path stroke-linecap="butt" transform="matrix(0.491803, 0, 0, 0.491803, 68.19161, 148.700395)" fill="none" stroke-linejoin="miter" d="M 430.232301 280.21638 L 462.328788 281.550756 " stroke="#ffffff" stroke-width="3" stroke-opacity="1" stroke-miterlimit="10"/><path stroke-linecap="butt" transform="matrix(0.491803, 0, 0, 0.491803, 68.19161, 148.700395)" fill="none" stroke-linejoin="miter" d="M 399.581387 278.95349 L 428.08777 280.129011 " stroke="#ffffff" stroke-width="3" stroke-opacity="1" stroke-miterlimit="10"/><path fill="#ffffff" d="M 246.742188 287.285156 L 248.21875 287.34375 C 248.378906 287.351562 248.535156 287.390625 248.683594 287.457031 C 248.832031 287.527344 248.960938 287.621094 249.070312 287.742188 C 249.179688 287.859375 249.265625 287.996094 249.320312 288.152344 C 249.375 288.304688 249.402344 288.460938 249.394531 288.625 C 249.386719 288.789062 249.351562 288.941406 249.28125 289.089844 C 249.214844 289.238281 249.117188 289.367188 249 289.476562 C 248.878906 289.589844 248.742188 289.671875 248.589844 289.726562 C 248.4375 289.785156 248.277344 289.808594 248.117188 289.800781 L 246.640625 289.742188 C 246.476562 289.734375 246.324219 289.695312 246.175781 289.628906 C 246.027344 289.558594 245.898438 289.464844 245.789062 289.34375 C 245.675781 289.226562 245.59375 289.089844 245.539062 288.9375 C 245.480469 288.78125 245.457031 288.625 245.464844 288.460938 C 245.46875 288.300781 245.507812 288.144531 245.578125 287.996094 C 245.644531 287.847656 245.738281 287.71875 245.859375 287.609375 C 245.980469 287.496094 246.117188 287.414062 246.269531 287.359375 C 246.421875 287.300781 246.578125 287.277344 246.742188 287.285156 Z M 246.742188 287.285156 " fill-opacity="1" fill-rule="nonzero"/><path stroke-linecap="butt" transform="matrix(0.491803, 0, 0, 0.491803, 68.19161, 148.700395)" fill="none" stroke-linejoin="miter" d="M 401.519408 285.879532 L 476.562123 288.993074 " stroke="#ffffff" stroke-width="3" stroke-opacity="1" stroke-miterlimit="10"/><path stroke-linecap="butt" transform="matrix(0.491803, 0, 0, 0.491803, 68.19161, 148.700395)" fill="none" stroke-linejoin="miter" d="M 379.470448 284.96612 L 399.200137 285.792162 " stroke="#ffffff" stroke-width="3" stroke-opacity="1" stroke-miterlimit="10"/><path fill="#ffffff" d="M 246.605469 290.644531 L 248.078125 290.707031 C 248.242188 290.710938 248.394531 290.75 248.542969 290.820312 C 248.691406 290.886719 248.820312 290.980469 248.933594 291.101562 C 249.042969 291.222656 249.125 291.359375 249.179688 291.511719 C 249.238281 291.664062 249.261719 291.820312 249.253906 291.984375 C 249.25 292.148438 249.210938 292.304688 249.144531 292.453125 C 249.074219 292.597656 248.980469 292.726562 248.859375 292.839844 C 248.738281 292.949219 248.601562 293.03125 248.449219 293.089844 C 248.296875 293.144531 248.140625 293.167969 247.976562 293.164062 L 246.503906 293.101562 C 246.339844 293.09375 246.183594 293.058594 246.035156 292.988281 C 245.886719 292.921875 245.757812 292.824219 245.648438 292.707031 C 245.539062 292.585938 245.453125 292.449219 245.398438 292.296875 C 245.34375 292.144531 245.316406 291.984375 245.324219 291.820312 C 245.332031 291.660156 245.367188 291.503906 245.4375 291.355469 C 245.507812 291.207031 245.601562 291.078125 245.71875 290.96875 C 245.839844 290.859375 245.976562 290.773438 246.128906 290.71875 C 246.28125 290.664062 246.441406 290.636719 246.605469 290.644531 Z M 246.605469 290.644531 " fill-opacity="1" fill-rule="nonzero"/><path stroke-linecap="butt" transform="matrix(0.491803, 0, 0, 0.491803, 68.19161, 148.700395)" fill="none" stroke-linejoin="miter" d="M 390.137506 292.257527 L 409.867195 293.083569 " stroke="#ffffff" stroke-width="3" stroke-opacity="1" stroke-miterlimit="10"/><path fill="#ffffff" d="M 246.464844 294.011719 L 247.9375 294.070312 C 248.101562 294.078125 248.257812 294.117188 248.40625 294.183594 C 248.554688 294.253906 248.683594 294.347656 248.792969 294.464844 C 248.902344 294.585938 248.988281 294.722656 249.042969 294.875 C 249.097656 295.027344 249.125 295.1875 249.117188 295.351562 C 249.109375 295.511719 249.074219 295.667969 249.003906 295.816406 C 248.933594 295.964844 248.839844 296.09375 248.722656 296.203125 C 248.601562 296.3125 248.464844 296.398438 248.3125 296.453125 C 248.160156 296.511719 248 296.535156 247.835938 296.527344 L 246.363281 296.464844 C 246.199219 296.460938 246.046875 296.421875 245.898438 296.355469 C 245.75 296.285156 245.621094 296.191406 245.507812 296.070312 C 245.398438 295.949219 245.316406 295.816406 245.257812 295.660156 C 245.203125 295.507812 245.179688 295.351562 245.1875 295.1875 C 245.191406 295.023438 245.230469 294.867188 245.296875 294.722656 C 245.367188 294.574219 245.460938 294.445312 245.582031 294.332031 C 245.703125 294.222656 245.835938 294.140625 245.992188 294.082031 C 246.144531 294.027344 246.300781 294.003906 246.464844 294.011719 Z M 246.464844 294.011719 " fill-opacity="1" fill-rule="nonzero"/><path stroke-linecap="butt" transform="matrix(0.491803, 0, 0, 0.491803, 68.19161, 148.700395)" fill="none" stroke-linejoin="miter" d="M 421.93217 300.430575 L 496.982827 303.536174 " stroke="#ffffff" stroke-width="3" stroke-opacity="1" stroke-miterlimit="10"/><path stroke-linecap="butt" transform="matrix(0.491803, 0, 0, 0.491803, 68.19161, 148.700395)" fill="none" stroke-linejoin="miter" d="M 399.88321 299.517163 L 419.620842 300.343205 " stroke="#ffffff" stroke-width="3" stroke-opacity="1" stroke-miterlimit="10"/><path fill="#ffffff" d="M 246.320312 297.375 L 247.796875 297.4375 C 247.957031 297.441406 248.113281 297.480469 248.261719 297.546875 C 248.410156 297.617188 248.539062 297.710938 248.648438 297.832031 C 248.757812 297.953125 248.84375 298.089844 248.898438 298.242188 C 248.953125 298.394531 248.980469 298.550781 248.972656 298.714844 C 248.964844 298.878906 248.929688 299.035156 248.859375 299.179688 C 248.792969 299.328125 248.695312 299.457031 248.578125 299.570312 C 248.457031 299.679688 248.320312 299.761719 248.167969 299.820312 C 248.015625 299.875 247.855469 299.898438 247.695312 299.894531 L 246.21875 299.832031 C 246.054688 299.824219 245.902344 299.789062 245.753906 299.71875 C 245.605469 299.648438 245.476562 299.554688 245.367188 299.4375 C 245.253906 299.316406 245.171875 299.179688 245.117188 299.027344 C 245.058594 298.875 245.035156 298.714844 245.042969 298.550781 C 245.046875 298.390625 245.085938 298.234375 245.15625 298.085938 C 245.222656 297.9375 245.316406 297.808594 245.4375 297.699219 C 245.558594 297.589844 245.695312 297.503906 245.847656 297.449219 C 246 297.394531 246.15625 297.367188 246.320312 297.375 Z M 246.320312 297.375 " fill-opacity="1" fill-rule="nonzero"/><path stroke-linecap="butt" transform="matrix(0.491803, 0, 0, 0.491803, 68.19161, 148.700395)" fill="none" stroke-linejoin="miter" d="M 410.550268 306.80857 L 430.2879 307.626669 " stroke="#ffffff" stroke-width="3" stroke-opacity="1" stroke-miterlimit="10"/><path fill="#ffffff" d="M 252.628906 293.511719 L 254.101562 293.511719 C 254.265625 293.511719 254.421875 293.542969 254.574219 293.605469 C 254.722656 293.667969 254.855469 293.757812 254.972656 293.871094 C 255.085938 293.988281 255.175781 294.121094 255.238281 294.269531 C 255.300781 294.421875 255.332031 294.578125 255.332031 294.742188 C 255.332031 294.90625 255.300781 295.0625 255.238281 295.210938 C 255.175781 295.363281 255.085938 295.496094 254.972656 295.609375 C 254.855469 295.726562 254.722656 295.816406 254.574219 295.878906 C 254.421875 295.941406 254.265625 295.972656 254.101562 295.972656 L 252.628906 295.972656 C 252.464844 295.972656 252.308594 295.941406 252.15625 295.878906 C 252.007812 295.816406 251.875 295.726562 251.757812 295.609375 C 251.644531 295.496094 251.554688 295.363281 251.492188 295.210938 C 251.429688 295.0625 251.398438 294.90625 251.398438 294.742188 C 251.398438 294.578125 251.429688 294.421875 251.492188 294.269531 C 251.554688 294.121094 251.644531 293.988281 251.757812 293.871094 C 251.875 293.757812 252.007812 293.667969 252.15625 293.605469 C 252.308594 293.542969 252.464844 293.511719 252.628906 293.511719 Z M 252.628906 293.511719 " fill-opacity="1" fill-rule="nonzero"/><path stroke-linecap="butt" transform="matrix(0.491803, 0, 0, 0.491803, 68.19161, 148.700395)" fill="none" stroke-linejoin="miter" d="M 412.027612 313.72667 L 419.81941 314.052321 " stroke="#ffffff" stroke-width="3" stroke-opacity="1" stroke-miterlimit="10"/><path stroke-linecap="butt" transform="matrix(0.491803, 0, 0, 0.491803, 68.19161, 148.700395)" fill="none" stroke-linejoin="miter" d="M 391.313027 312.868857 L 410.423185 313.663128 " stroke="#ffffff" stroke-width="3" stroke-opacity="1" stroke-miterlimit="10"/><path stroke-linecap="butt" transform="matrix(0.491803, 0, 0, 0.491803, 68.19161, 148.700395)" fill="none" stroke-linejoin="miter" d="M 377.858078 312.312867 L 389.557689 312.797373 " stroke="#ffffff" stroke-width="3" stroke-opacity="1" stroke-miterlimit="10"/><path fill="#ffffff" d="M 246.046875 304.101562 L 247.523438 304.160156 C 247.683594 304.167969 247.839844 304.207031 247.988281 304.273438 C 248.136719 304.34375 248.265625 304.4375 248.375 304.558594 C 248.484375 304.675781 248.570312 304.8125 248.625 304.964844 C 248.683594 305.121094 248.707031 305.277344 248.699219 305.441406 C 248.691406 305.601562 248.65625 305.757812 248.585938 305.90625 C 248.519531 306.054688 248.425781 306.183594 248.304688 306.292969 C 248.183594 306.40625 248.046875 306.488281 247.894531 306.542969 C 247.742188 306.601562 247.582031 306.625 247.421875 306.617188 L 245.945312 306.558594 C 245.785156 306.550781 245.628906 306.511719 245.480469 306.445312 C 245.332031 306.375 245.203125 306.28125 245.09375 306.160156 C 244.980469 306.042969 244.898438 305.90625 244.84375 305.75 C 244.785156 305.597656 244.761719 305.441406 244.769531 305.277344 C 244.777344 305.113281 244.8125 304.960938 244.882812 304.8125 C 244.949219 304.664062 245.042969 304.535156 245.164062 304.425781 C 245.285156 304.3125 245.421875 304.230469 245.574219 304.175781 C 245.726562 304.117188 245.886719 304.09375 246.046875 304.101562 Z M 246.046875 304.101562 " fill-opacity="1" fill-rule="nonzero"/><path stroke-linecap="butt" transform="matrix(0.491803, 0, 0, 0.491803, 68.19161, 148.700395)" fill="none" stroke-linejoin="miter" d="M 418.548576 322.630446 L 450.629178 324.322243 " stroke="#ffffff" stroke-width="3" stroke-opacity="1" stroke-miterlimit="10"/><path stroke-linecap="butt" transform="matrix(0.491803, 0, 0, 0.491803, 68.19161, 148.700395)" fill="none" stroke-linejoin="miter" d="M 386.896881 320.279404 L 415.387378 321.979144 " stroke="#ffffff" stroke-width="3" stroke-opacity="1" stroke-miterlimit="10"/><path fill="#ffffff" d="M 245.945312 307.621094 L 247.417969 307.707031 C 247.582031 307.714844 247.734375 307.753906 247.882812 307.824219 C 248.03125 307.894531 248.15625 307.992188 248.265625 308.113281 C 248.375 308.234375 248.457031 308.375 248.511719 308.527344 C 248.5625 308.679688 248.585938 308.839844 248.578125 309.003906 C 248.566406 309.164062 248.527344 309.320312 248.457031 309.46875 C 248.386719 309.613281 248.289062 309.742188 248.167969 309.851562 C 248.046875 309.957031 247.910156 310.039062 247.753906 310.09375 C 247.601562 310.148438 247.441406 310.167969 247.28125 310.160156 L 245.808594 310.078125 C 245.644531 310.066406 245.488281 310.027344 245.34375 309.957031 C 245.195312 309.886719 245.066406 309.789062 244.960938 309.667969 C 244.851562 309.546875 244.769531 309.410156 244.714844 309.253906 C 244.660156 309.101562 244.640625 308.945312 244.648438 308.78125 C 244.65625 308.617188 244.699219 308.464844 244.769531 308.316406 C 244.839844 308.167969 244.933594 308.042969 245.058594 307.933594 C 245.179688 307.824219 245.316406 307.742188 245.46875 307.6875 C 245.625 307.636719 245.78125 307.613281 245.945312 307.621094 Z M 245.945312 307.621094 " fill-opacity="1" fill-rule="nonzero"/><path stroke-linecap="butt" transform="matrix(0.491803, 0, 0, 0.491803, 68.19161, 148.700395)" fill="none" stroke-linejoin="miter" d="M 376.912896 328.142686 L 451.693501 335.179926 " stroke="#ffffff" stroke-width="3" stroke-opacity="1" stroke-miterlimit="10"/></svg>