<svg xmlns="http://www.w3.org/2000/svg" xmlns:xlink="http://www.w3.org/1999/xlink" width="500" zoomAndPan="magnify" viewBox="0 0 375 374.999991" height="500" preserveAspectRatio="xMidYMid meet" version="1.0"><defs><clipPath id="4d7dd9d48b"><path d="M 114 132.09375 L 260 132.09375 L 260 243.09375 L 114 243.09375 Z M 114 132.09375 " clip-rule="nonzero"/></clipPath></defs><g clip-path="url(#4d7dd9d48b)"><path fill="#1e1b1e" d="M 211.425781 207.765625 C 204.242188 207.765625 198.355469 201.1875 198.355469 193.101562 C 198.355469 185.015625 204.109375 178.378906 211.425781 178.378906 C 218.730469 178.378906 224.5625 184.96875 224.488281 193.066406 C 224.402344 201.164062 218.730469 207.765625 211.425781 207.765625 Z M 163.117188 207.765625 C 155.957031 207.765625 150.058594 201.1875 150.058594 193.101562 C 150.058594 185.015625 155.816406 178.378906 163.117188 178.378906 C 170.433594 178.378906 176.265625 184.96875 176.203125 193.066406 C 176.136719 201.164062 170.433594 207.765625 163.117188 207.765625 Z M 237.734375 141.394531 C 228.1875 136.992188 218.101562 133.871094 207.746094 132.117188 C 206.425781 134.414062 204.945312 137.511719 203.90625 140.007812 C 192.890625 138.359375 181.6875 138.359375 170.671875 140.007812 C 169.492188 137.308594 168.171875 134.671875 166.722656 132.117188 C 156.355469 133.871094 146.257812 137.003906 136.703125 141.425781 C 117.777344 169.695312 112.636719 197.296875 115.210938 224.460938 C 126.316406 232.730469 138.761719 239.027344 152.003906 243.0625 C 154.980469 239.019531 157.621094 234.734375 159.894531 230.25 C 155.585938 228.644531 151.433594 226.660156 147.480469 224.320312 C 148.519531 223.539062 149.515625 222.746094 150.480469 221.957031 C 173.777344 232.992188 200.777344 232.992188 224.078125 221.957031 C 225.0625 222.78125 226.089844 223.570312 227.117188 224.328125 C 223.15625 226.683594 218.992188 228.675781 214.683594 230.292969 C 216.945312 234.769531 219.585938 239.039062 222.5625 243.070312 C 235.816406 239.050781 248.261719 232.753906 259.367188 224.480469 C 262.363281 192.96875 254.183594 165.632812 237.734375 141.394531 Z M 237.734375 141.394531 " fill-opacity="1" fill-rule="nonzero"/></g></svg>